<?xml version="1.0" standalone="no"?>
<!DOCTYPE svg PUBLIC "-//W3C//DTD SVG 20010904//EN"
 "http://www.w3.org/TR/2001/REC-SVG-20010904/DTD/svg10.dtd">
<svg version="1.0" xmlns="http://www.w3.org/2000/svg"
 width="512.000000pt" height="512.000000pt" viewBox="0 0 512.000000 512.000000"
 preserveAspectRatio="xMidYMid meet">
<metadata>
Created by potrace 1.14, written by Peter Selinger 2001-2017
</metadata>
<g transform="translate(0.000000,512.000000) scale(0.100000,-0.100000)"
fill="#000000" stroke="none">
<path d="M2475 5114 c-124 -28 -173 -49 -253 -108 -209 -154 -284 -434 -182
-676 13 -30 32 -67 42 -82 10 -14 18 -28 18 -31 0 -3 -73 -54 -162 -113 -506
-333 -448 -289 -508 -384 -389 -616 -659 -952 -970 -1208 -165 -136 -201 -181
-217 -269 -30 -161 31 -294 167 -365 54 -28 151 -33 213 -12 23 8 107 63 188
122 80 59 212 157 294 217 295 217 505 403 616 546 l54 69 7 -43 c7 -45 3
-519 -5 -552 -3 -11 -8 -47 -11 -80 -10 -87 -16 -124 -27 -180 -5 -27 -11 -59
-13 -70 -2 -11 -12 -62 -22 -112 l-17 -93 -844 0 -843 0 2 -392 3 -393 140 -1
c77 -1 147 -2 157 -3 15 -1 16 -39 16 -449 l0 -447 320 -3 320 -2 0 444 c0
244 2 448 5 452 4 7 683 11 718 5 3 -1 5 -124 5 -274 -1 -149 0 -279 2 -287 3
-13 28 -15 160 -15 l157 0 0 289 0 288 75 19 c99 25 202 78 272 140 94 83 181
233 195 337 3 23 9 42 12 42 4 0 13 -28 20 -62 46 -223 263 -428 491 -464 19
-3 37 -8 40 -11 2 -2 5 -133 5 -290 l0 -286 158 -1 c133 -1 157 1 158 14 0 8
2 136 2 283 2 190 5 270 14 275 14 9 700 8 709 -1 4 -3 7 -207 7 -452 l0 -445
321 0 321 0 0 452 0 453 155 0 155 0 3 393 2 392 -844 0 -844 0 -21 113 c-11
61 -23 123 -26 137 -3 14 -8 41 -11 60 -3 19 -7 46 -9 60 -6 31 -14 99 -24
205 -9 86 -12 474 -5 515 5 23 16 14 142 -111 177 -175 384 -354 533 -461 13
-10 114 -84 224 -166 110 -81 217 -156 238 -165 124 -59 280 -11 361 111 93
140 64 326 -66 433 -246 202 -441 399 -609 615 -35 45 -70 90 -77 100 -7 11
-50 71 -95 135 -46 63 -143 210 -217 325 l-134 210 -259 174 c-143 96 -267
180 -276 185 -13 8 -37 23 -79 51 -2 1 8 20 22 43 14 22 37 74 51 115 101 301
-61 617 -370 721 -48 16 -209 28 -250 19z"/>
</g>
</svg>
